HIERARCHY
ROOT pelvis
{
	OFFSET 0.00 0.00 0.00
	CHANNELS 6 Xposition Yposition Zposition Xrotation Yrotation Zrotation
	JOINT lfemur
	{
		OFFSET 0.00000 3.20717 0.00000
		CHANNELS 3 Xrotation Yrotation Zrotation
		JOINT ltibia
		{
			OFFSET 0.00000 0.00000 -15.48450
			CHANNELS 3 Xrotation Yrotation Zrotation
			JOINT lfoot
			{
				OFFSET 0.00000 0.00000 -15.12678
				CHANNELS 3 Xrotation Yrotation Zrotation
				JOINT ltoes
				{
					OFFSET 5.14667 0.00000 -1.70681
					CHANNELS 3 Xrotation Yrotation Zrotation
				}
			}
		}
	}
	JOINT rfemur
	{
		OFFSET 0.00000 -3.20717 0.00000
		CHANNELS 3 Xrotation Yrotation Zrotation
		JOINT rtibia
		{
			OFFSET 0.00000 0.00000 -15.79237
			CHANNELS 3 Xrotation Yrotation Zrotation
			JOINT rfoot
			{
				OFFSET 0.00000 0.00000 -14.63938
				CHANNELS 3 Xrotation Yrotation Zrotation
				JOINT rtoes
				{
					OFFSET 4.13531 0.00000 -2.28367
					CHANNELS 3 Xrotation Yrotation Zrotation
				}
			}
		}
	}
	JOINT lowerback
	{
		OFFSET -1.96850 0.00000 5.25621
		CHANNELS 3 Xrotation Yrotation Zrotation
		JOINT upperback
		{
			OFFSET -0.07958 0.00000 5.71078
			CHANNELS 3 Xrotation Yrotation Zrotation
			JOINT lclavicle
			{
				OFFSET 0.00000 0.00000 8.25148
				CHANNELS 3 Xrotation Yrotation Zrotation
				JOINT lhumerus
				{
					OFFSET 0.00000 5.37672 -2.47600
					CHANNELS 3 Xrotation Yrotation Zrotation
					JOINT lradius
					{
						OFFSET 0.00000 0.00000 -11.21411
						CHANNELS 3 Xrotation Yrotation Zrotation
						JOINT lhand
						{
							OFFSET 0.00000 0.00000 -8.03975
							CHANNELS 3 Xrotation Yrotation Zrotation
						}
					}
				}
			}
			JOINT rclavicle
			{
				OFFSET 0.00000 0.00000 8.25148
				CHANNELS 3 Xrotation Yrotation Zrotation
				JOINT rhumerus
				{
					OFFSET 0.00000 -5.17578 -2.36445
					CHANNELS 3 Xrotation Yrotation Zrotation
					JOINT rradius
					{
						OFFSET 0.00000 0.00000 -11.62006
						CHANNELS 3 Xrotation Yrotation Zrotation
						JOINT rhand
						{
							OFFSET 0.00000 0.00000 -7.95557
							CHANNELS 3 Xrotation Yrotation Zrotation
						}
					}
				}
			}
			JOINT LowerNeck
			{
				OFFSET 0.00000 0.00000 8.25148
				CHANNELS 3 Xrotation Yrotation Zrotation
				JOINT Neck
				{
					OFFSET -0.20651 -0.19585 3.46745
					CHANNELS 3 Xrotation Yrotation Zrotation
				}
			}
		}
	}
}
MOTION
Frames: 18
Frame Time: 0.008342
 11.4196 42.7359 36.4112 169.0573 23.1872 -37.7436 16.3244 -3.5024 3.2400 -0.0000 -1.4300 14.4438 6.4570 48.3840 11.3951 0.0000 -17.7125 -0.0000 -107.4365 -33.2965 -92.0922 0.0000 -4.6270 -2.9297 -3.1861 4.9831 -11.6672 0.0000 -6.6568 -0.0000 10.3788 -30.0434 -5.1478 11.7847 42.7836 -6.6671 4.6263 -0.0000 19.7073 160.8011 21.4635 102.8348 -0.0000 -15.3949 -4.7196 37.7448 -18.0290 0.0000 -3.6070 -0.0000 -22.2713 -156.0202 -1.4756 -145.9006 -0.0000 -26.7252 14.8005 -56.5425 -44.6271 -0.0000 -13.8816 -70.7713 -33.0506 7.1182 -30.9604 3.0212
 11.4384 43.2547 36.3764 167.2928 22.9007 -37.8829 14.9429 -3.7765 1.5398 0.0000 -1.1615 15.5310 6.4421 49.0138 11.1131 0.0000 -17.5775 -0.0000 -108.8752 -32.5416 -93.7790 -0.0000 -5.2806 -3.5875 -3.0177 4.0104 -11.1073 0.0000 -7.1546 -0.0000 10.6160 -29.8035 -5.1892 12.0798 43.2290 -6.8756 5.2523 -0.0000 20.3364 160.8700 20.8126 102.5648 -0.0000 -14.8888 -5.1502 37.2380 -17.8103 0.0000 -4.0753 0.0000 -22.0346 -155.7861 -2.0539 -145.3518 -0.0000 -26.0622 13.5638 -57.1618 -45.3997 -0.0000 -12.8880 -70.3783 -32.2267 6.9305 -31.5337 2.8686
 11.4671 43.7938 36.3443 165.3509 22.3535 -38.2878 13.4899 -3.6014 0.2207 -0.0000 -0.9291 15.5659 6.4901 49.3147 11.0762 -0.0000 -17.6322 -0.0000 -110.4278 -32.2452 -95.5974 -0.0000 -5.4716 -2.4849 -3.2397 3.0762 -12.0036 0.0000 -7.3089 -0.0000 10.8787 -29.0888 -5.1184 12.1749 43.5213 -6.9560 5.8949 -0.0000 21.1362 161.0706 20.0596 102.3062 -0.0000 -14.6344 -5.1015 35.6877 -17.2852 0.0000 -4.8257 -0.0000 -21.4987 -155.1151 -2.7830 -144.4260 -0.0000 -25.4881 13.3278 -57.8862 -45.3797 -0.0000 -11.2417 -70.3100 -30.8767 6.3206 -31.2539 2.7499
 11.4952 44.3396 36.3004 163.4987 21.8816 -38.6429 11.9832 -3.6952 -1.2016 0.0000 -0.6899 16.2322 6.4675 49.6317 10.9068 0.0000 -17.6187 -0.0000 -111.9475 -31.8533 -97.2662 -0.0000 -5.7543 -2.3953 -3.2366 2.3739 -12.0387 -0.0000 -7.5989 0.0000 11.0381 -28.6514 -5.0682 12.2761 43.9219 -7.0356 6.5149 -0.0000 21.8527 161.3829 19.2808 102.1796 -0.0000 -14.2929 -5.3948 34.3757 -16.9107 0.0000 -5.5171 0.0000 -20.9977 -154.4650 -3.4916 -143.4003 -0.0000 -24.8593 12.3397 -58.7998 -45.7294 -0.0000 -9.5972 -69.9445 -29.5884 5.9691 -31.5228 2.6161
 11.5393 44.8946 36.2462 161.6758 21.3931 -38.9289 10.3749 -4.0020 -1.5102 -0.0000 -0.3014 16.4476 6.3139 49.8465 10.5526 -0.0000 -17.7409 -0.0000 -113.4136 -31.3742 -98.6919 0.0000 -5.9624 -2.5741 -3.1587 1.7090 -11.7856 0.0000 -7.5732 0.0000 11.0627 -28.4489 -5.0617 12.3339 44.5057 -6.9948 7.0816 -0.0000 22.5612 161.8743 18.4496 102.1516 0.0000 -13.8453 -5.7901 33.4919 -16.5771 0.0000 -6.1640 -0.0000 -20.4645 -153.7012 -4.1257 -142.3505 -0.0000 -24.1161 10.7035 -59.2325 -47.4831 -0.0000 -7.6493 -69.3254 -28.1002 5.4617 -32.3033 2.4001
 11.5697 45.4676 36.1867 159.7318 20.8374 -39.4320 8.8001 -4.1034 -1.8366 0.0000 -0.0821 16.3420 6.3097 49.9808 10.4920 -0.0000 -17.4565 -0.0000 -114.8794 -31.2539 -100.0348 0.0000 -6.0073 -2.2597 -3.2088 1.4475 -11.9920 0.0000 -8.1094 -0.0000 11.1471 -27.9205 -4.9059 12.3609 44.8253 -7.0414 7.9022 0.0000 23.2678 162.2716 17.4775 102.4011 -0.0000 -13.6049 -6.4559 31.9036 -16.0189 0.0000 -6.9217 -0.0000 -19.7040 -152.8466 -4.8650 -140.6997 -0.0000 -23.4373 9.1603 -60.0198 -47.5096 -0.0000 -5.3239 -68.7795 -26.2764 4.9581 -32.8082 2.2165
 11.5994 46.0432 36.1148 157.8066 20.3920 -39.9165 7.2394 -4.4136 -2.1933 -0.0000 0.1112 16.5505 6.2644 50.1521 10.3460 0.0000 -17.4726 -0.0000 -116.1870 -31.1134 -101.1720 -0.0000 -6.1121 -2.2453 -3.1740 1.4009 -11.8628 -0.0000 -8.3087 -0.0000 11.2579 -27.5960 -4.7621 12.3514 45.1872 -7.0150 8.6342 -0.0000 23.8109 162.7690 16.5121 102.7826 0.0000 -13.4629 -7.4091 30.3020 -15.5266 0.0000 -7.6166 -0.0000 -18.9227 -151.9887 -5.5782 -138.9723 -0.0000 -22.6391 7.6328 -60.7588 -48.0550 -0.0000 -3.3705 -68.1497 -24.8559 4.5702 -33.3073 2.1501
 11.6267 46.6283 36.0306 155.8219 19.9923 -40.4176 5.7122 -4.8166 -2.1736 0.0000 0.2932 16.4275 6.1842 50.3224 10.1425 0.0000 -17.4940 -0.0000 -117.3706 -31.0494 -102.1176 -0.0000 -6.1088 -2.1450 -3.1511 1.5281 -11.7679 0.0000 -8.4918 0.0000 11.3878 -27.2956 -4.6261 12.3365 45.5131 -6.9642 9.4043 0.0000 24.2513 163.2710 15.5069 103.3210 0.0000 -13.4453 -8.6082 28.6472 -14.9936 0.0000 -8.3039 0.0000 -18.0765 -151.1121 -6.3010 -137.0865 -0.0000 -21.7702 6.0171 -61.3564 -48.6480 -0.0000 -1.5055 -67.4857 -23.5398 4.1140 -33.8182 2.0835
 11.6561 47.2156 35.9182 153.6114 19.5657 -41.4208 4.3794 -4.8257 -3.4506 -0.0000 -0.0435 18.7820 5.9244 50.7376 9.5475 0.0000 -17.6184 -0.0000 -118.2949 -31.7131 -102.9831 0.0000 -6.1894 -2.2247 -3.0948 1.9075 -11.5313 0.0000 -8.2601 -0.0000 12.1268 -26.7349 -3.9432 12.0338 45.9019 -6.7583 9.8988 -0.0000 24.4966 163.9871 14.6495 104.4375 0.0000 -13.4925 -10.3069 26.4683 -14.5237 0.0000 -8.9282 -0.0000 -16.9969 -150.2534 -6.6079 -134.0493 -0.0000 -20.4377 3.1595 -62.2321 -50.0504 -0.0000 -0.2305 -66.8994 -22.9125 4.0123 -34.2897 2.2789
 11.6738 47.8191 35.8195 151.6554 19.3268 -41.6414 2.8249 -5.9049 -1.1094 -0.0000 0.6224 15.8512 5.7902 50.7901 9.3057 0.0000 -17.8031 -0.0000 -119.3575 -31.3678 -103.7454 -0.0000 -5.7813 -2.2271 -2.9596 2.1803 -11.0040 0.0000 -8.1064 -0.0000 11.8308 -26.7743 -4.2295 12.2345 46.2064 -6.7467 10.8591 -0.0000 24.7835 164.4070 13.5420 104.8876 -0.0000 -13.8277 -11.7095 24.5184 -13.7058 0.0000 -9.6761 -0.0000 -16.2638 -149.2462 -7.7103 -132.6913 -0.0000 -19.5659 2.4059 -62.2240 -50.3858 0.0000 1.6127 -66.0790 -21.6726 3.6565 -34.8424 2.2756
 11.6916 48.4222 35.6840 149.3044 19.0168 -42.7167 1.6236 -6.1182 -2.0002 -0.0000 0.2493 17.6584 5.4218 50.9839 8.6318 0.0000 -17.6370 0.0000 -120.1374 -32.2164 -104.1522 0.0000 -5.3570 -1.9206 -3.0331 3.0624 -11.2267 -0.0000 -8.3504 0.0000 12.6309 -26.1451 -3.5257 11.9051 46.3628 -6.5117 11.5346 -0.0000 24.8217 165.1188 12.5465 106.4209 -0.0000 -14.0797 -14.3051 22.3581 -13.1550 0.0000 -10.3471 -0.0000 -15.0833 -148.2901 -8.2299 -129.4102 0.0000 -18.3874 -0.8178 -62.9672 -51.5366 -0.0000 2.4969 -65.4587 -21.1766 3.3470 -35.0794 2.1491
 11.6993 49.0423 35.5575 147.2387 18.8878 -42.9229 0.2094 -7.4084 0.5339 -0.0000 0.8680 14.4851 5.2361 50.9628 8.3361 -0.0000 -17.7641 -0.0000 -121.0234 -31.9760 -104.6790 -0.0000 -4.4243 -1.6675 -2.9026 3.5556 -10.7062 -0.0000 -8.0833 -0.0000 12.2641 -26.2462 -3.9135 12.1168 46.5899 -6.4719 12.5590 -0.0000 24.9894 165.6236 11.4168 106.9692 0.0000 -14.5985 -16.0596 20.0249 -12.1504 0.0000 -11.1578 0.0000 -14.2524 -147.0626 -9.4780 -127.9441 -0.0000 -17.4749 -1.3761 -62.7718 -51.5995 -0.0000 4.0776 -64.5664 -20.0982 3.0981 -35.6096 2.0337
 11.6990 49.6650 35.3907 144.7802 18.6935 -44.1264 -0.7915 -7.8156 0.3170 0.0000 0.3597 15.4504 4.9449 51.0527 7.8346 -0.0000 -17.5679 -0.0000 -121.6448 -33.0819 -104.5906 -0.0000 -3.5379 -1.7307 -2.8823 4.5619 -10.5663 -0.0000 -8.4673 -0.0000 13.0721 -25.5947 -3.1783 11.6974 46.5881 -6.1675 13.3109 0.0000 24.8121 166.4648 10.3977 108.8061 0.0000 -14.9855 -19.4927 17.2740 -11.3468 -0.0000 -11.8619 0.0000 -13.0792 -145.9714 -10.2576 -124.3446 0.0000 -16.1138 -4.6133 -63.6700 -52.1176 -0.0000 4.7074 -63.9268 -19.6091 2.8307 -35.5995 1.7050
 11.6989 50.2965 35.2089 142.4097 18.5838 -45.3794 -1.7671 -8.6616 1.8466 0.0000 0.2259 14.4413 4.7876 51.0483 7.5818 0.0000 -17.6986 -0.0000 -122.4781 -34.1575 -104.3578 0.0000 -1.8794 -1.9963 -2.7491 4.8057 -10.0562 -0.0000 -8.6390 0.0000 13.7022 -25.1197 -2.4243 11.2764 46.4549 -5.6488 14.0566 -0.0000 24.5737 167.5450 9.2194 110.5302 0.0000 -15.2598 -22.8690 14.4459 -10.4716 0.0000 -12.5367 0.0000 -12.0290 -144.5851 -11.3868 -120.8385 -0.0000 -15.1917 -7.3528 -63.1619 -52.8586 -0.0000 5.0304 -63.1638 -19.4688 2.5030 -35.5888 1.1129
 11.6940 50.9277 35.0349 140.2699 18.6082 -45.4361 -2.9635 -10.3613 3.1943 0.0000 0.8434 13.2030 4.4770 50.4523 7.2480 -0.0000 -17.7325 -0.0000 -123.2166 -33.9810 -104.5771 -0.0000 0.6013 -0.5689 -2.7048 4.3068 -9.9228 -0.0000 -8.7957 0.0000 13.0545 -25.5149 -2.9604 11.7874 46.7009 -5.8930 15.0768 -0.0000 24.7896 168.1553 8.0389 110.8786 0.0000 -15.8334 -24.8095 11.8506 -9.1280 -0.0000 -13.4539 0.0000 -10.9604 -143.1312 -12.7406 -120.0127 0.0000 -14.0256 -7.5156 -62.7056 -53.1482 -0.0000 6.1727 -62.0999 -18.8542 2.4501 -36.3555 1.0587
 11.6868 51.5705 34.8055 137.5293 18.4014 -46.9979 -3.5458 -10.9349 3.5959 0.0000 0.4514 14.4951 4.1249 49.7904 6.8388 0.0000 -17.5526 -0.0000 -124.0295 -35.8417 -104.0397 0.0000 3.6696 -1.0436 -2.4728 2.9233 -9.1364 0.0000 -9.5116 -0.0000 14.0311 -24.6659 -1.8130 11.1143 46.5636 -5.3032 15.9595 0.0000 24.4633 169.2289 6.8250 112.7589 0.0000 -16.0067 -28.5878 8.9007 -8.2535 0.0000 -14.2985 0.0000 -9.8991 -141.4556 -13.9498 -116.5093 0.0000 -12.7651 -10.4474 -62.6851 -53.9349 -0.0000 6.1704 -61.2895 -19.1765 2.3943 -36.3678 0.6666
 11.6580 52.2169 34.5691 135.0985 18.5025 -48.0424 -4.1389 -12.3867 5.8901 0.0000 0.6469 12.7354 3.9567 48.9666 6.7567 -0.0000 -17.5956 -0.0000 -124.9548 -37.0388 -104.2371 0.0000 7.2890 -1.1830 -2.1303 0.6107 -7.9566 0.0000 -10.0521 -0.0000 14.2663 -24.5699 -1.3190 11.0421 46.5232 -4.9802 16.7918 -0.0000 24.3539 170.2627 5.5188 113.9364 0.0000 -16.0843 -31.5527 6.5016 -7.4314 0.0000 -15.2262 0.0000 -8.9698 -139.6723 -15.4667 -114.1517 -0.0000 -11.6515 -11.7616 -62.4535 -53.7900 -0.0000 6.4002 -60.5053 -18.9707 1.8791 -36.3970 -0.0484
 11.6363 52.8617 34.3096 132.5014 18.5788 -49.1107 -4.5584 -13.6058 6.9760 0.0000 0.5152 12.6701 3.7079 48.0484 6.5343 0.0000 -17.6011 -0.0000 -125.6189 -38.5173 -104.6954 0.0000 10.9534 -1.4919 -1.6828 -2.2789 -6.3567 0.0000 -10.5159 -0.0000 14.6510 -24.3467 -0.7741 10.8833 46.4363 -4.5842 17.5543 -0.0000 24.0832 171.3856 4.2032 115.0278 0.0000 -15.9010 -33.9678 5.0098 -6.4126 0.0000 -16.1728 0.0000 -7.9886 -137.7850 -16.9663 -111.7457 0.0000 -10.5049 -12.7304 -62.2353 -53.4808 -0.0000 6.0323 -59.8705 -19.2469 1.4575 -36.0607 -0.7932
